<svg width="382" height="44" viewBox="0 0 382 44" fill="none" xmlns="http://www.w3.org/2000/svg">
<path d="M8.84444 42.8889C7.3037 42.8889 5.77778 42.6519 4.26667 42.1778C2.78519 41.7037 1.54074 40.963 0.533333 39.9556L2.62222 32.4889C3.21481 33.3778 3.97037 34.0889 4.88889 34.6222C5.80741 35.1556 6.84444 35.4222 8 35.4222C9.39259 35.4222 10.5481 34.963 11.4667 34.0444C12.4148 33.1259 12.8889 31.5852 12.8889 29.4222V2H21.1556V30C21.1556 32.963 20.5778 35.4074 19.4222 37.3333C18.2667 39.2296 16.7407 40.637 14.8444 41.5556C12.9778 42.4444 10.9778 42.8889 8.84444 42.8889ZM48.4306 42.8C45.4972 42.8 42.7565 42.2667 40.2083 41.2C37.6602 40.1037 35.4083 38.6074 33.4528 36.7111C31.5269 34.8148 30.0157 32.6074 28.9194 30.0889C27.8231 27.5704 27.275 24.8741 27.275 22C27.275 19.1259 27.8231 16.4296 28.9194 13.9111C30.0157 11.3926 31.5269 9.18518 33.4528 7.28889C35.4083 5.39259 37.6602 3.91111 40.2083 2.84444C42.7565 1.74815 45.4972 1.2 48.4306 1.2C51.3639 1.2 54.1046 1.74815 56.6528 2.84444C59.2009 3.91111 61.438 5.39259 63.3639 7.28889C65.3194 9.18518 66.8454 11.3926 67.9417 13.9111C69.038 16.4296 69.5861 19.1259 69.5861 22C69.5861 24.8741 69.038 27.5704 67.9417 30.0889C66.8454 32.6074 65.3194 34.8148 63.3639 36.7111C61.438 38.6074 59.2009 40.1037 56.6528 41.2C54.1046 42.2667 51.3639 42.8 48.4306 42.8ZM48.4306 35.0667C50.8306 35.0667 52.9935 34.4889 54.9194 33.3333C56.8454 32.1481 58.3713 30.563 59.4972 28.5778C60.6528 26.5926 61.2306 24.4 61.2306 22C61.2306 19.5704 60.6528 17.3778 59.4972 15.4222C58.3713 13.437 56.8454 11.8667 54.9194 10.7111C52.9935 9.52593 50.8306 8.93333 48.4306 8.93333C46.0306 8.93333 43.8528 9.52593 41.8972 10.7111C39.9713 11.8667 38.4454 13.437 37.3194 15.4222C36.1935 17.3778 35.6306 19.5704 35.6306 22C35.6306 24.4 36.1935 26.5926 37.3194 28.5778C38.4454 30.563 39.9713 32.1481 41.8972 33.3333C43.8528 34.4889 46.0306 35.0667 48.4306 35.0667ZM76.4 42V2H88.6222C91.5259 2 94 2.57778 96.0444 3.73333C98.1185 4.88889 99.7037 6.42963 100.8 8.35556C101.896 10.2519 102.444 12.3407 102.444 14.6222C102.444 16.6963 101.985 18.5778 101.067 20.2667C100.178 21.9556 98.9037 23.3481 97.2444 24.4444L107.822 42H99.0667L90.1778 26.8H84.1333V42H76.4ZM84.1333 20.1333H88.4444C89.8963 20.1333 91.0815 19.8667 92 19.3333C92.9185 18.7704 93.6 18.0741 94.0444 17.2444C94.4889 16.3852 94.7111 15.5111 94.7111 14.6222C94.7111 13.0519 94.1333 11.763 92.9778 10.7556C91.8222 9.71852 90.3111 9.2 88.4444 9.2H84.1333V20.1333ZM111.829 42V2H125.429C128.629 2 131.533 2.51852 134.14 3.55555C136.777 4.59259 139.044 6.02963 140.94 7.86666C142.866 9.67407 144.348 11.7926 145.385 14.2222C146.422 16.6519 146.94 19.2444 146.94 22C146.94 24.7556 146.422 27.3481 145.385 29.7778C144.348 32.2074 142.866 34.3407 140.94 36.1778C139.044 37.9852 136.777 39.4074 134.14 40.4444C131.533 41.4815 128.629 42 125.429 42H111.829ZM119.562 34.8H124.718C126.97 34.8 128.955 34.4741 130.674 33.8222C132.392 33.1407 133.829 32.2222 134.985 31.0667C136.17 29.8815 137.059 28.5185 137.651 26.9778C138.274 25.437 138.585 23.7778 138.585 22C138.585 20.2222 138.274 18.563 137.651 17.0222C137.059 15.4519 136.17 14.0889 134.985 12.9333C133.829 11.7481 132.392 10.8296 130.674 10.1778C128.955 9.52593 126.97 9.2 124.718 9.2H119.562V34.8ZM148.533 42L166.178 0.577778H166.267L183.911 42H175.867L172.889 34.8889H159.289L156.311 42H148.533ZM161.956 28.4889H170.222L168.489 24.4C168.015 23.3037 167.57 22.2519 167.156 21.2444C166.77 20.2074 166.4 19.0074 166.044 17.6444C165.719 18.9778 165.363 20.163 164.978 21.2C164.593 22.237 164.163 23.3037 163.689 24.4L161.956 28.4889ZM220.171 43.3333L196.171 19.3778V42H188.704V0.666664L212.704 24.5778V2H220.171V43.3333ZM242.283 42V2H250.55V42H242.283ZM259.329 42V2H271.863C274.529 2 276.648 2.51852 278.218 3.55555C279.818 4.56296 280.959 5.79259 281.64 7.24444C282.322 8.66667 282.663 10.0296 282.663 11.3333C282.663 12.4889 282.44 13.5852 281.996 14.6222C281.551 15.6296 280.929 16.5185 280.129 17.2889C281.966 18.4444 283.448 19.9852 284.574 21.9111C285.7 23.8074 286.263 25.9259 286.263 28.2667C286.263 30.5481 285.7 32.7407 284.574 34.8444C283.448 36.9481 281.774 38.6667 279.551 40C277.329 41.3333 274.588 42 271.329 42H259.329ZM267.062 34.8H270.529C272.307 34.8 273.729 34.4593 274.796 33.7778C275.892 33.0667 276.677 32.1926 277.151 31.1556C277.655 30.0889 277.907 29.037 277.907 28C277.907 26.9926 277.67 25.9704 277.196 24.9333C276.722 23.8667 275.937 22.9778 274.84 22.2667C273.774 21.5556 272.337 21.2 270.529 21.2H267.062V34.8ZM267.062 15.6H270.529C271.922 15.6 273.048 15.2741 273.907 14.6222C274.766 13.9704 275.196 13.0222 275.196 11.7778C275.196 10.4741 274.766 9.49629 273.907 8.84444C273.077 8.19259 272.011 7.86666 270.707 7.86666H267.062V15.6ZM302.908 42.8889C300.479 42.8889 298.168 42.4444 295.975 41.5556C293.812 40.637 292.079 39.5407 290.775 38.2667L292.953 29.3778C293.99 31.1852 295.456 32.6963 297.353 33.9111C299.249 35.0963 301.19 35.6889 303.175 35.6889C304.805 35.6889 306.079 35.2444 306.997 34.3556C307.945 33.4667 308.419 32.3852 308.419 31.1111C308.419 30.0741 308.168 29.2148 307.664 28.5333C307.19 27.8519 306.612 27.2889 305.931 26.8444C305.279 26.4 304.701 26.0593 304.197 25.8222L299.486 23.4667C298.123 22.7852 296.819 21.9852 295.575 21.0667C294.331 20.1185 293.308 18.9481 292.508 17.5556C291.738 16.163 291.353 14.4444 291.353 12.4C291.353 10.1481 291.856 8.17778 292.864 6.48889C293.901 4.8 295.353 3.48148 297.219 2.53333C299.086 1.58518 301.279 1.11111 303.797 1.11111C306.168 1.11111 308.271 1.4963 310.108 2.26667C311.975 3.00741 313.486 3.80741 314.642 4.66666L312.597 13.3333C311.412 11.7926 309.99 10.563 308.331 9.64444C306.701 8.6963 305.071 8.22222 303.442 8.22222C301.99 8.22222 300.864 8.59259 300.064 9.33333C299.294 10.0741 298.908 10.9926 298.908 12.0889C298.908 12.7704 299.056 13.3778 299.353 13.9111C299.679 14.4444 300.138 14.9185 300.731 15.3333C301.323 15.7481 302.019 16.163 302.819 16.5778L307.575 18.9333C308.375 19.3185 309.249 19.8222 310.197 20.4444C311.145 21.037 312.064 21.7926 312.953 22.7111C313.842 23.6296 314.568 24.7407 315.131 26.0444C315.694 27.3185 315.975 28.8444 315.975 30.6222C315.975 32.9333 315.442 35.0222 314.375 36.8889C313.308 38.7259 311.797 40.1926 309.842 41.2889C307.916 42.3556 305.605 42.8889 302.908 42.8889ZM321.954 42V2H343.288V8.93333H329.688V15.0667H340.176V21.7333H329.688V34.8H343.288V42H321.954ZM381.421 43.3333L357.421 19.3778V42H349.954V0.666664L373.954 24.5778V2H381.421V43.3333Z" fill="black"/>
</svg>
